HIERARCHY
ROOT Hips
{
	OFFSET 0.000000 0.000000 0.000000 
	CHANNELS 6 Xposition Yposition Zposition Zrotation Yrotation Xrotation
	JOINT LeftUpLeg
	{
		OFFSET 1.363060 -1.794630 0.839290 
		CHANNELS 3 Zrotation Yrotation Xrotation
		JOINT LeftLeg
		{
			OFFSET 2.448110 -6.726130 0.000000 
			CHANNELS 3 Zrotation Yrotation Xrotation
			JOINT LeftFoot
			{
				OFFSET 2.562200 -7.039590 0.000000 
				CHANNELS 3 Zrotation Yrotation Xrotation
				JOINT LeftToeBase
				{
					OFFSET 0.157640 -0.433110 2.322550 
					CHANNELS 3 Zrotation Yrotation Xrotation
					End Site
					{
						OFFSET 0.000000 0.000000 0.000000 
					}
				}
			}
		}
	}
	JOINT RightUpLeg
	{
		OFFSET -1.305520 -1.794630 0.839290 
		CHANNELS 3 Zrotation Yrotation Xrotation
		JOINT RightLeg
		{
			OFFSET -2.542530 -6.985550 0.000000 
			CHANNELS 3 Zrotation Yrotation Xrotation
			JOINT RightFoot
			{
				OFFSET -2.568260 -7.056230 0.000000 
				CHANNELS 3 Zrotation Yrotation Xrotation
				JOINT RightToeBase
				{
					OFFSET -0.164730 -0.452590 2.363150 
					CHANNELS 3 Zrotation Yrotation Xrotation
					End Site
					{
						OFFSET 0.000000 0.000000 0.000000 
					}
				}
			}
		}
	}
	JOINT Spine
	{
		OFFSET 0.028270 2.035590 -0.193380 
		CHANNELS 3 Zrotation Yrotation Xrotation
		JOINT Spine1
		{
			OFFSET 0.056720 2.048850 -0.042750 
			CHANNELS 3 Zrotation Yrotation Xrotation
			JOINT Neck1
			{
				OFFSET -0.054170 1.746240 0.172020 
				CHANNELS 3 Zrotation Yrotation Xrotation
				JOINT Head
				{
					OFFSET 0.104070 1.761360 -0.123970 
					CHANNELS 3 Zrotation Yrotation Xrotation
					End Site
					{
						OFFSET 0.000000 0.000000 0.000000 
					}
				}
			}
			JOINT LeftArm
			{
				OFFSET 3.362410 1.200890 -0.311210 
				CHANNELS 3 Zrotation Yrotation Xrotation
				JOINT LeftForeArm
				{
					OFFSET 4.983000 -0.000000 -0.000000 
					CHANNELS 3 Zrotation Yrotation Xrotation
					JOINT LeftHand
					{
						OFFSET 3.483560 -0.000000 -0.000000 
						CHANNELS 3 Zrotation Yrotation Xrotation
						JOINT LeftHandIndex1
						{
							OFFSET 0.715260 -0.000000 -0.000000 
							CHANNELS 3 Zrotation Yrotation Xrotation
							End Site
							{
								OFFSET 0.000000 0.000000 0.000000 
							}
						}
					}
				}
			}
			JOINT RightArm
			{
				OFFSET -3.136600 1.374050 -0.404650 
				CHANNELS 3 Zrotation Yrotation Xrotation
				JOINT RightForeArm
				{
					OFFSET -5.241900 -0.000000 -0.000000 
					CHANNELS 3 Zrotation Yrotation Xrotation
					JOINT RightHand
					{
						OFFSET -3.444170 -0.000000 -0.000000 
						CHANNELS 3 Zrotation Yrotation Xrotation
						JOINT RightHandIndex1
						{
							OFFSET -0.622530 -0.000000 -0.000000 
							CHANNELS 3 Zrotation Yrotation Xrotation
							End Site
							{
								OFFSET 0.000000 0.000000 0.000000 
							}
						}
					}
				}
			}
		}
	}
}
MOTION
Frames: 7
Frame Time: 0.041667
47.935778 17.116682 -7.530315 -40.362070 -86.894427 43.516616 -21.704839 -0.915976 -10.295224 1.441006 9.446363 27.824372 -0.096221 7.094830 -18.075989 0.063700 -1.627900 -4.478500 30.376529 3.944374 -11.938172 -3.992484 -12.313194 36.482982 -1.992827 -0.594089 -26.686020 -1.102000 -6.670400 18.742400 0.854257 -1.308904 -1.339204 1.486164 -0.976479 5.739940 9.070191 -14.958343 1.862691 5.538000 -7.042700 1.152000 -79.967520 -3.927578 25.076035 11.406282 -19.342737 -2.989238 -1.544748 -0.918752 -9.450501 -7.125000 0.000000 0.000000 74.310182 3.275406 21.087365 -10.338610 20.136404 -2.596096 0.471070 -0.768576 1.102031 7.125000 0.000000 0.000000 
47.936400 17.116785 -7.530730 -40.307482 -86.900395 43.472372 -21.704815 -0.897544 -10.316583 1.439820 9.446438 27.822197 -0.080512 7.016044 -18.081142 0.057100 -1.542000 -4.241600 30.368968 3.944785 -11.962629 -3.993868 -12.315621 36.489639 -1.990168 -0.592461 -26.666551 -1.102100 -6.670500 18.742900 0.856853 -1.319046 -1.346207 1.510856 -0.980564 5.714558 9.089250 -14.941589 1.887400 5.560400 -7.035300 1.171900 -79.991223 -3.895684 25.047331 11.399259 -19.335786 -2.987735 -1.545531 -0.919797 -9.434195 -7.125000 0.000000 0.000000 74.293324 3.233248 21.164906 -10.348316 20.150168 -2.598309 0.471818 -0.767917 1.089723 7.125000 0.000000 0.000000 
47.937127 17.116267 -7.531664 -40.096295 -86.900399 43.246879 -21.708681 -0.888289 -10.305270 1.439946 9.445107 27.819544 -0.092637 7.059086 -18.044599 0.063100 -1.620600 -4.458400 30.365912 3.940192 -11.950376 -3.995407 -12.316638 36.495607 -1.990019 -0.601007 -26.671754 -1.098500 -6.660000 18.712100 0.852761 -1.298810 -1.343982 1.505691 -0.971163 5.719145 9.115939 -14.967565 1.888980 5.573100 -7.047100 1.185400 -79.962453 -3.910302 25.092179 11.394440 -19.328951 -2.983748 -1.543818 -0.914625 -9.423817 -7.125000 0.000000 0.000000 74.310133 3.230661 21.144890 -10.353329 20.155607 -2.599396 0.471801 -0.766609 1.077543 7.125000 0.000000 0.000000 
47.937334 17.116163 -7.531975 -40.165848 -86.901511 43.303572 -21.705757 -0.886884 -10.294649 1.440125 9.443945 27.818761 -0.089065 7.046228 -18.055826 0.061100 -1.594600 -4.386600 30.370213 3.941399 -11.940013 -3.996458 -12.317144 36.499549 -1.991580 -0.601945 -26.682684 -1.100300 -6.665400 18.727800 0.854359 -1.307926 -1.351071 1.512896 -0.974790 5.696733 9.104317 -14.951087 1.947576 5.567000 -7.042500 1.226300 -79.984381 -3.878697 25.044603 11.387213 -19.320328 -2.982307 -1.545120 -0.914253 -9.410273 -7.125000 0.000000 0.000000 74.310021 3.208623 21.152291 -10.333889 20.132861 -2.593748 0.470890 -0.768734 1.130681 7.125000 0.000000 0.000000 
47.937749 17.116059 -7.532598 -40.090517 -86.903065 43.217386 -21.706844 -0.878401 -10.287781 1.439911 9.442494 27.816250 -0.090170 7.046942 -18.046468 0.061500 -1.599700 -4.400600 30.367938 3.935689 -11.933735 -3.997654 -12.317828 36.504289 -1.992055 -0.602665 -26.686500 -1.099500 -6.662900 18.720500 0.853450 -1.305205 -1.355386 1.517568 -0.973072 5.685599 9.110759 -14.950283 1.997338 5.571100 -7.044300 1.268500 -79.987269 -3.863303 25.033794 11.378472 -19.309764 -2.979394 -1.545949 -0.913328 -9.396462 -7.125000 0.000000 0.000000 74.314253 3.192577 21.151483 -10.323308 20.120517 -2.590685 0.470008 -0.769891 1.153839 7.125000 0.000000 0.000000 
47.937957 17.116059 -7.533013 -39.968784 -86.905863 43.084251 -21.711193 -0.873921 -10.279517 1.439995 9.441637 27.815308 -0.092654 7.055969 -18.038397 0.062500 -1.612700 -4.436600 30.363242 3.928310 -11.925184 -3.998477 -12.317581 36.506221 -1.992492 -0.605668 -26.691117 -1.098000 -6.658700 18.708000 0.852027 -1.301679 -1.360380 1.522738 -0.971103 5.675475 9.117558 -14.948746 2.062280 5.575000 -7.046400 1.323000 -79.989106 -3.846553 25.022750 11.368538 -19.297899 -2.976414 -1.547151 -0.913014 -9.383283 -7.125000 0.000000 0.000000 74.320402 3.176923 21.140455 -10.309170 20.104066 -2.586709 0.468815 -0.771401 1.182508 7.125000 0.000000 0.000000 
47.938165 17.116059 -7.533635 -39.881926 -86.907546 42.986708 -21.714084 -0.871345 -10.271432 1.440086 9.440382 27.813471 -0.095388 7.066711 -18.032469 0.063500 -1.625600 -4.472000 30.360466 3.923206 -11.917294 -3.999251 -12.317396 36.508430 -1.993061 -0.607986 -26.696142 -1.097500 -6.656900 18.702900 0.850901 -1.299384 -1.366975 1.530472 -0.969454 5.662978 9.121701 -14.944753 2.148850 5.577400 -7.048500 1.393200 -79.993403 -3.825101 25.006462 11.357176 -19.284337 -2.972883 -1.548259 -0.913253 -9.370852 -7.125000 0.000000 0.000000 74.326326 3.158619 21.125449 -10.292781 20.084667 -2.581949 0.467664 -0.772977 1.214062 7.125000 0.000000 0.000000 
